<svg width="137" height="29" viewBox="0 0 137 29" fill="none" xmlns="http://www.w3.org/2000/svg">
<g clip-path="url(#clip0)">
<path d="M34.29 5.49005H41.69C43.4837 5.44161 45.264 5.81137 46.89 6.57005C48.2967 7.24805 49.4623 8.34029 50.23 9.70005C51.034 11.1911 51.4339 12.8666 51.39 14.5601C51.4353 16.262 51.0391 17.9467 50.24 19.4501C49.4785 20.8111 48.3156 21.9042 46.91 22.5801C45.2771 23.3393 43.4902 23.709 41.69 23.6601H34.29V5.49005ZM41.36 19.8601C42.081 19.917 42.8062 19.8296 43.493 19.6029C44.1798 19.3763 44.8145 19.0149 45.36 18.5401C45.8368 17.9958 46.1994 17.3612 46.4261 16.6741C46.6529 15.9869 46.7392 15.2612 46.68 14.5401C46.7421 13.8187 46.6572 13.0922 46.4303 12.4047C46.2034 11.7171 45.8393 11.0828 45.36 10.5401C44.8121 10.0701 44.1765 9.71335 43.49 9.49023C42.8035 9.26712 42.0796 9.18209 41.36 9.24005H39V19.8601H41.36Z" fill="white"/>
<path d="M65.62 18.21H57.78C57.8438 18.8959 58.1655 19.5321 58.68 19.99C59.2677 20.3882 59.9718 20.5783 60.68 20.53C61.9631 20.5133 63.2111 20.109 64.26 19.37L65.42 22.37C64.7219 22.8654 63.9439 23.2375 63.12 23.47C62.2508 23.7326 61.3481 23.8674 60.44 23.87C59.1316 23.903 57.8336 23.629 56.65 23.07C55.6182 22.5671 54.7611 21.7658 54.19 20.77C53.5962 19.6974 53.2993 18.4857 53.33 17.26C53.3087 16.0701 53.5873 14.894 54.14 13.84C54.6582 12.857 55.4455 12.0419 56.41 11.49C57.4124 10.9221 58.5482 10.6321 59.7 10.65C60.5017 10.6198 61.3006 10.7622 62.0424 11.0676C62.7843 11.373 63.4519 11.8342 64 12.42C65.1239 13.7429 65.6967 15.4469 65.6 17.18L65.62 18.21ZM57.73 16H61.73C61.63 14.4867 60.9634 13.73 59.73 13.73C58.4967 13.73 57.83 14.4867 57.73 16Z" fill="white"/>
<path d="M76.1001 11H80.5901L74.9301 23.67H71.1401L65.5701 11H70.3701L73.1601 18.14L76.1001 11Z" fill="white"/>
<path d="M88.6299 11H91.6299V14.38H88.6299V23.69H83.9999V14.36H81.6699V11H83.9999C83.9895 10.248 84.1393 9.50236 84.4393 8.81269C84.7393 8.12302 85.1827 7.5051 85.7399 7C87.148 5.98523 88.8444 5.44895 90.5799 5.47L92.1499 5.37L92.4099 8.7L91.1999 8.75C90.5068 8.72557 89.8188 8.87693 89.1999 9.18999C88.9965 9.35125 88.8374 9.5616 88.7377 9.80127C88.638 10.0409 88.6009 10.302 88.6299 10.56V11Z" fill="white"/>
<path d="M95.6801 23.07C94.654 22.5577 93.8017 21.7542 93.2301 20.76C92.6362 19.6873 92.3393 18.4757 92.3701 17.25C92.3377 16.0273 92.6347 14.8184 93.2301 13.75C93.8018 12.7668 94.6505 11.9739 95.6701 11.47C96.8288 10.9428 98.087 10.67 99.3601 10.67C100.633 10.67 101.891 10.9428 103.05 11.47C104.07 11.9739 104.918 12.7668 105.49 13.75C106.085 14.8184 106.382 16.0273 106.35 17.25C106.381 18.4757 106.084 19.6873 105.49 20.76C104.907 21.7593 104.04 22.5632 103 23.07C101.847 23.6046 100.591 23.8815 99.3201 23.8815C98.049 23.8815 96.7932 23.6046 95.6401 23.07H95.6801ZM101.81 17.25C101.81 15.1167 100.993 14.05 99.3601 14.05C97.7267 14.05 96.9101 15.1167 96.9101 17.25C96.9101 19.3833 97.7267 20.45 99.3601 20.45C100.993 20.45 101.81 19.3833 101.81 17.25Z" fill="white"/>
<path d="M108.44 23.67V5.48999H113V23.67H108.44Z" fill="white"/>
<path d="M115.58 4.64001H120.38V8.79001H115.58V4.64001ZM115.68 23.64V11H120.27V23.67L115.68 23.64Z" fill="white"/>
<path d="M125.66 23.07C124.634 22.5577 123.782 21.7542 123.21 20.76C122.616 19.6873 122.319 18.4757 122.35 17.25C122.318 16.0273 122.615 14.8184 123.21 13.75C123.782 12.7668 124.63 11.9739 125.65 11.47C126.809 10.9428 128.067 10.67 129.34 10.67C130.613 10.67 131.871 10.9428 133.03 11.47C134.05 11.9739 134.898 12.7668 135.47 13.75C136.065 14.8184 136.362 16.0273 136.33 17.25C136.361 18.4757 136.064 19.6873 135.47 20.76C134.892 21.7564 134.033 22.56 133 23.07C131.847 23.6046 130.591 23.8815 129.32 23.8815C128.049 23.8815 126.793 23.6046 125.64 23.07H125.66ZM131.79 17.25C131.79 15.1167 130.973 14.05 129.34 14.05C127.707 14.05 126.89 15.1167 126.89 17.25C126.89 19.3833 127.707 20.45 129.34 20.45C130.973 20.45 131.787 19.3833 131.78 17.25H131.79Z" fill="white"/>
<path d="M26.0001 15.7C26.0275 18.8689 24.8673 21.9332 22.7481 24.2893C20.6289 26.6455 17.7042 28.1227 14.5501 28.43C14.5501 28.43 6.33008 28.64 3.61008 28.43C3.11199 28.3702 2.63862 28.1796 2.23814 27.8774C1.83765 27.5753 1.52434 27.1725 1.33008 26.71C1.71271 26.8786 2.1226 26.9768 2.54008 27C3.43008 27.08 4.95008 27.12 7.07008 27.12C10.1801 27.12 13.5701 27.03 13.6001 27.03H13.6601C17.0487 26.7422 20.1998 25.172 22.4701 22.64C24.4173 20.494 25.6507 17.7966 26.0001 14.92C26.0001 15.18 26.0001 15.44 26.0001 15.7Z" fill="white"/>
<path d="M25 12.91C25.0244 16.0803 23.8604 19.1448 21.7372 21.4993C19.6141 23.8538 16.6859 25.3276 13.53 25.63C13.53 25.63 5.30997 25.84 2.58997 25.63C1.85537 25.5161 1.18738 25.1386 0.710753 24.5681C0.234127 23.9976 -0.0185305 23.2732 -2.77775e-05 22.53V3.16002C-0.00919759 2.41302 0.255211 1.68848 0.743354 1.12297C1.2315 0.557458 1.90965 0.190054 2.64997 0.0900152C5.37997 -0.139985 13.59 0.0900152 13.59 0.0900152C16.7525 0.407954 19.6803 1.90203 21.7935 4.27633C23.9066 6.65062 25.051 9.73195 25 12.91V12.91Z" fill="white"/>
</g>
<defs>
<clipPath id="clip0">
<rect width="136.32" height="28.52" fill="white"/>
</clipPath>
</defs>
</svg>
