<svg height="30" viewBox="0 0 137 30" width="137" xmlns="http://www.w3.org/2000/svg"><g fill="none" transform="translate(-1)"><g fill="#273339"><path d="m35.29 6.49h7.4c1.7936606-.04844432 3.5739743.32131313 5.2 1.08 1.4066953.67799083 2.5722167 1.77023093 3.34 3.13.803988 1.4910768 1.2038947 3.1665479 1.16 4.86.0452801 1.7019494-.3509113 3.3866241-1.15 4.89-.7615554 1.3610739-1.9244228 2.4540994-3.33 3.13-1.6329186.759283-3.4198518 1.1289933-5.22 1.08h-7.4zm7.07 14.37c1.4564923.1149937 2.898021-.3607108 4-1.32.9633205-1.0996799 1.4396015-2.5429558 1.32-4 .1254745-1.4577371-.3515476-2.9032588-1.32-4-1.1067924-.9491094-2.5466966-1.4170783-4-1.3h-2.36v10.62z"/><path d="m66.62 19.21h-7.84c.0637808.6858917.3854272 1.3220369.9 1.78.5877042.3981921 1.2917473.5882837 2 .54 1.2830266-.0166798 2.5310043-.4210524 3.58-1.16l1.16 3c-.6981698.4954134-1.4761039.8674688-2.3 1.1-.8692024.2626204-1.7719937.3973654-2.68.4-1.3084738.0329766-2.6064799-.2410088-3.79-.8-1.0318733-.5029469-1.888897-1.3042292-2.46-2.3-.5938597-1.0726424-.8907385-2.2843222-.86-3.51-.0213144-1.1899142.257244-2.3660498.81-3.42.5181174-.9830291 1.3054983-1.7981591 2.27-2.35 1.0023248-.5679112 2.1381069-.8578981 3.29-.84 1.6221236-.0611071 3.190947.5846644 4.3 1.77 1.1238346 1.3228776 1.6966113 3.0268884 1.6 4.76zm-7.89-2.21h4c-.1-1.5133333-.7666667-2.27-2-2.27s-1.9.7566667-2 2.27z"/><path d="m77.1 12h4.49l-5.66 12.67h-3.79l-5.57-12.67h4.8l2.79 7.14z"/><path d="m89.63 12h3v3.38h-3v9.31h-4.63v-9.33h-2.33v-3.36h2.33c-.0210041-1.5212729.6127641-2.97821143 1.74-4 1.4080529-1.01476337 3.1045131-1.55104108 4.84-1.53l1.57-.1.26 3.33-1.21.05c-.6931125-.02442773-1.3811354.1269373-2 .44-.4135497.3278083-.6289782.8455925-.57 1.37z"/><path d="m96.68 24.07c-1.0260981-.5122608-1.8783182-1.3157825-2.45-2.31-.5938597-1.0726424-.8907385-2.2843222-.86-3.51-.0323661-1.2226762.2646732-2.4315569.86-3.5.5717545-.9831465 1.4203918-1.7761355 2.44-2.28 2.3443704-1.0666749 5.03563-1.0666749 7.38 0 1.019608.5038645 1.868246 1.2968535 2.44 2.28.595327 1.0684431.892366 2.2773238.86 3.5.030739 1.2256778-.26614 2.4373576-.86 3.51-.583286.9993059-1.449816 1.8031949-2.49 2.31-2.33404 1.0819733-5.0259601 1.0819733-7.36 0zm6.13-5.82c0-2.1333333-.816667-3.2-2.45-3.2-1.6333333 0-2.45 1.0666667-2.45 3.2s.8166667 3.2 2.45 3.2c1.633333 0 2.45-1.0666667 2.45-3.2z"/><path d="m109.44 24.67v-18.18h4.56v18.18z"/><path d="m116.58 5.64h4.8v4.15h-4.8zm.1 19v-12.64h4.59v12.67z"/><path d="m126.66 24.07c-1.026098-.5122608-1.878318-1.3157825-2.45-2.31-.59386-1.0726424-.890739-2.2843222-.86-3.51-.032366-1.2226762.264673-2.4315569.86-3.5.571754-.9831465 1.420392-1.7761355 2.44-2.28 2.34437-1.0666749 5.03563-1.0666749 7.38 0 1.019608.5038645 1.868246 1.2968535 2.44 2.28.595327 1.0684431.892366 2.2773238.86 3.5.030739 1.2256778-.26614 2.4373576-.86 3.51-.577957.9963807-1.437201 1.7999652-2.47 2.31-2.33404 1.0819733-5.02596 1.0819733-7.36 0zm6.13-5.82c0-2.1333333-.816667-3.2-2.45-3.2s-2.45 1.0666667-2.45 3.2.816667 3.2 2.45 3.2 2.446667-1.0666667 2.44-3.2z"/></g><g fill="#3770ff"><path d="m27 16.7c.0568564 6.568577-4.912131 12.0930495-11.45 12.73 0 0-8.22.21-10.94 0-1.01397205-.1216936-1.88453061-.7784308-2.28-1.72.38263632.1685727.79252005.2668093 1.21.29.89.08 2.41.12 4.53.12 3.11 0 6.5-.09 6.53-.09h.06c3.3886318-.287771 6.5396932-1.8579367 8.81-4.39 1.9472701-2.1459913 3.1806496-4.8433538 3.53-7.72z"/><path d="m26 13.91c.0507036 6.5717244-4.928052 12.0930644-11.47 12.72 0 0-8.22.21-10.94 0-1.51964284-.2357242-2.62827606-1.5626597-2.59-3.1v-19.37c-.0189758-1.54581235 1.11799492-2.86298221 2.65-3.07 2.73-.23 10.94 0 10.94 0 6.5568132.65917633 11.51581 6.23098511 11.41 12.82z"/></g></g></svg>